
<?xml version="1.0" standalone="no"?><svg t="1666248525178" class="icon" viewBox="0 0 1024 1024" version="1.1" p-id="1384" width="36" height="36"><path d="M954.24 325.12a480 480 0 0 0-629.12-256 480 480 0 0 0-256 629.12 480 480 0 0 0 629.12 256 480 480 0 0 0 256-629.12zM512 923.2A411.2 411.2 0 1 1 923.2 512 411.68 411.68 0 0 1 512 923.2z" fill="#4592D8" p-id="1385"></path><path d="M487.68 236.64L276.96 448a34.4 34.4 0 1 0 48 48l151.36-151.36v418.4a34.4 34.4 0 1 0 68.64 0V343.2L698.4 496a34.4 34.4 0 1 0 48-48L536.32 236.64a34.4 34.4 0 0 0-48 0z" fill="#4592D8" p-id="1386"></path></svg>
