
<?xml version="1.0" standalone="no"?><!DOCTYPE svg PUBLIC "-//W3C//DTD SVG 1.1//EN" "http://www.w3.org/Graphics/SVG/1.1/DTD/svg11.dtd"><svg t="1664419833261" class="icon" viewBox="0 0 1024 1024" version="1.1" xmlns="http://www.w3.org/2000/svg" p-id="9341" width="26" height="26"><path d="M637.08672 129.9968c8.75008 19.85024-5.30432 59.87328-0.77824 79.40096 7.03488 30.3616 42.17344 45.60384 73.15456 42.23488 21.56544-2.34496 52.77184-42.82368 74.33728-45.16864 84.48-9.18528 175.4368 134.07744 125.24032 202.6496-12.81536 17.50528-62.30528 40.58624-75.12064 58.09152a71.49568 71.49568 0 0 0 0 84.46976c12.81536 17.50528 50.37568 16.72704 63.18592 34.23232 50.19648 68.57216-16.896 223.76448-101.38112 214.5792-21.56544-2.34496-64.70144-30.89408-86.26688-33.23904a71.5008 71.5008 0 0 0-73.15456 42.23488c-8.75008 19.85024 9.53344 59.55072 0.77824 79.40096-34.28352 77.75744-216.192 77.75744-250.47552 0-8.75008-19.85024 9.53344-59.55072 0.77824-79.40096a71.5008 71.5008 0 0 0-73.15456-42.23488c-21.56544 2.34496-40.84224 30.89408-62.40768 33.23904-84.48 9.18528-187.3664-134.07744-137.16992-202.6496 12.81536-17.50528 62.30528-28.65664 75.12064-46.16192a71.49568 71.49568 0 0 0 0-84.46976c-12.81536-17.50528-62.30528-28.65664-75.12064-46.16192-50.19648-68.57216 40.7552-223.76448 125.24032-214.5792 21.56544 2.34496 52.77184 42.82368 74.33728 45.16864 30.98624 3.36896 66.11968-11.87328 73.15456-42.23488 4.52608-19.52768-9.53344-59.55072-0.77824-79.40096 34.28864-77.75744 216.192-77.75744 250.48064 0z" fill="#999999" opacity=".3" p-id="9342"></path><path d="M511.8464 509.44m-125.26592 0a125.26592 125.26592 0 1 0 250.53184 0 125.26592 125.26592 0 1 0-250.53184 0Z" fill="#999999" p-id="9343"></path></svg>
