
<?xml version="1.0" standalone="no"?><!DOCTYPE svg PUBLIC "-//W3C//DTD SVG 1.1//EN" "http://www.w3.org/Graphics/SVG/1.1/DTD/svg11.dtd"><svg t="1664415310692" class="icon" viewBox="0 0 1024 1024" version="1.1" xmlns="http://www.w3.org/2000/svg" p-id="3144" width="26" height="26" xmlns:xlink="http://www.w3.org/1999/xlink"><path d="M872.24 871.45c0 26.833-21.752 48.593-48.584 48.593H206.638c-26.832 0-48.584-21.76-48.584-48.593V162.789c0-26.833 21.752-48.584 48.584-48.584h617.017c26.832 0 48.584 21.752 48.584 48.584V871.45z" fill="#C8C9CA" p-id="3145"></path><path d="M823.656 925.043H206.638c-29.546 0-53.584-24.042-53.584-53.593V162.789c0-29.546 24.038-53.584 53.584-53.584h617.017c29.546 0 53.584 24.038 53.584 53.584V871.45c0.001 29.551-24.038 53.593-53.583 53.593zM206.638 119.205c-24.032 0-43.584 19.552-43.584 43.584V871.45c0 24.037 19.552 43.593 43.584 43.593h617.017c24.032 0 43.584-19.556 43.584-43.593V162.789c0-24.033-19.552-43.584-43.584-43.584H206.638z" fill="#433F3F" p-id="3146"></path><path d="M723.256 302.553H307.03c-10.304 0-15.529-2.499-15.529-7.427s5.225-7.427 15.529-7.427h416.227c10.305 0 15.529 2.499 15.529 7.427s-5.225 7.427-15.53 7.427zM725.399 419.666H309.173c-10.305 0-15.529-2.493-15.529-7.41 0-4.939 5.225-7.444 15.529-7.444h416.226c10.305 0 15.529 2.504 15.529 7.444 0 4.916-5.225 7.41-15.529 7.41zM724.327 532.954H308.101c-10.304 0-15.529-2.499-15.529-7.428 0-4.928 5.225-7.427 15.529-7.427h416.227c10.305 0 15.529 2.499 15.529 7.427 0 4.929-5.225 7.428-15.53 7.428zM726.47 650.074H310.243c-10.304 0-15.529-2.499-15.529-7.427s5.225-7.427 15.529-7.427H726.47c10.304 0 15.528 2.499 15.528 7.427s-5.224 7.427-15.528 7.427zM722.285 761.774H306.059c-10.304 0-15.529-2.494-15.529-7.412 0-4.939 5.225-7.443 15.529-7.443h416.227c10.305 0 15.529 2.504 15.529 7.443 0 4.918-5.225 7.412-15.53 7.412z" fill="#433F3F" p-id="3147"></path></svg>
